<svg width="861" height="261" viewBox="0 0 861 261" fill="none" xmlns="http://www.w3.org/2000/svg">
<path d="M218.603 2.11914L327.103 258.619L327.69 260.009H279.505L279.253 259.38L255.505 200.009H173.354L149.107 259.387L148.854 260.009H101.641L101.857 259.521C97.2112 260.178 92.3784 260.509 87.3594 260.509C74.2187 260.509 62.1026 258.54 51.0215 254.592L51.0098 254.588L50.998 254.583C40.1285 250.396 30.3945 244.726 21.8027 237.574C13.2158 230.426 6.05581 222.165 0.328125 212.794L0 212.256L0.342773 211.728L22.4541 177.673L23.3594 176.279L24.167 177.731C28.4648 185.455 33.7884 192.332 40.1396 198.364C46.4752 204.382 53.647 209.197 61.6592 212.812C69.8528 216.179 78.4173 217.863 87.3594 217.863C95.0103 217.863 101.385 216.778 106.517 214.651C111.855 212.273 115.747 209.094 118.266 205.144L118.269 205.139C120.983 200.932 122.36 195.879 122.36 189.936C122.36 183.777 120.715 178.63 117.468 174.436L117.451 174.415L117.437 174.393C114.419 170.036 108.64 166.585 99.8506 164.169L99.8379 164.165L61.8516 153.18L61.832 153.174C50.7956 149.733 41.2541 145.3 33.2217 139.865L33.208 139.855L33.1953 139.847C25.3148 134.136 19.2536 126.929 15.0234 118.236L15.0166 118.224L15.0107 118.21C10.9715 109.265 8.96976 98.7441 8.96973 86.6738C8.96973 72.1267 12.0249 59.0252 18.1562 47.3926C24.2909 35.7537 33.1147 26.5853 44.6104 19.9014C56.321 12.9579 70.3013 9.50879 86.5088 9.50879H86.9658L87.2646 9.85449L125.938 54.5273L124.623 56.0117C120.275 53.0869 113.811 51.2826 106.829 50.2207C99.8747 49.163 92.5285 48.8584 86.5088 48.8584C82.7246 48.8584 78.8695 49.967 75.2637 51.4395C71.6583 52.9117 68.3933 54.7058 65.7129 56.0664C60.7618 58.672 57.1385 62.0795 54.7891 66.2744C52.6057 70.5109 51.5069 75.2293 51.5068 80.4482C51.5068 86.8117 53.4129 92.1839 57.2021 96.6221L57.5654 97.0137C61.405 101.04 67.8835 104.5 77.1514 107.318H77.1523L112.021 117.571H112.02C130.649 122.974 144.1 131.115 152.216 142.086C152.657 142.656 153.086 143.237 153.504 143.825L216.769 2.10156L217.706 0L218.603 2.11914ZM718.067 30.1621C744.892 12.421 775.706 8.53234 796.31 10.4199L797.283 10.5137L797.693 10.5557L797.955 10.875L843.455 66.375L842.213 67.8926C817.828 54.9537 797.098 50.2046 779.739 50.9375C762.392 51.67 748.347 57.8788 737.317 66.9678C715.219 85.1769 705.188 114.983 705.182 135.488L705.209 136.624C705.877 160.377 712.158 177.811 721.764 190.313C731.522 203.014 744.773 210.706 759.262 214.732C788.291 222.799 822.155 216.108 842.219 205.622L843.121 205.151L860.076 239.062L860.55 240.01L859.576 240.428C786.137 271.93 738.028 261.196 707.809 234.622C688.134 217.321 676.159 193.4 669.682 170.373V258.009H631.182V14.0088H669.682V99.6543C679.04 65.8343 697.329 43.8778 718.067 30.1621ZM520.682 221.009H593.642L593.941 221.358L623.941 256.358L625.355 258.009H481.182V13.0088H520.682V221.009ZM398.809 133.476H469.485L469.147 134.734L466.232 145.593L466.089 146.125L465.563 146.288L398.809 167.062V220.428L398.308 220.717L355.512 245.375L354.013 246.239V146.334H290.182V133.735L290.889 133.519L354.013 114.189V55.0078L354.492 54.7148L397.288 28.6543L398.809 27.7295V133.476ZM122.862 184.271C122.929 184.63 122.988 184.992 123.041 185.358L122.957 184.812C122.927 184.63 122.896 184.45 122.862 184.271V184.271ZM117.232 172.494C117.183 172.436 117.132 172.379 117.082 172.321C117.132 172.379 117.183 172.436 117.232 172.494ZM116.803 172.009C116.763 171.966 116.724 171.923 116.685 171.88C116.724 171.923 116.763 171.966 116.803 172.009ZM116.281 171.462C116.256 171.437 116.231 171.412 116.206 171.387C116.231 171.412 116.256 171.437 116.281 171.462ZM114.646 169.982C115.028 170.293 115.392 170.611 115.739 170.935C115.392 170.611 115.028 170.293 114.646 169.982ZM184.176 166.009H243.713L214.658 92.1816L184.176 166.009ZM106.014 165.15C105.928 165.117 105.842 165.083 105.756 165.05C105.842 165.083 105.928 165.117 106.014 165.15ZM42.415 144.183C42.7245 144.345 43.0355 144.507 43.3486 144.667C43.0355 144.507 42.7245 144.345 42.415 144.183ZM41.666 143.786C41.7879 143.851 41.9107 143.915 42.0332 143.98C41.8107 143.862 41.5888 143.744 41.3682 143.625C41.4674 143.679 41.5664 143.733 41.666 143.786ZM40.8369 143.337C40.941 143.394 41.0458 143.45 41.1504 143.507C40.8929 143.367 40.6368 143.226 40.3818 143.084C40.5333 143.168 40.6845 143.253 40.8369 143.337ZM39.207 142.421C39.5156 142.598 39.8263 142.774 40.1387 142.949C39.8262 142.774 39.5156 142.598 39.207 142.421ZM34.5303 139.538C34.781 139.704 35.0334 139.868 35.2871 140.032H35.2881C34.7801 139.704 34.2774 139.373 33.7812 139.037C34.0295 139.205 34.2791 139.372 34.5303 139.538ZM148.2 138.797L147.887 138.458C147.862 138.431 147.836 138.405 147.812 138.379C147.942 138.518 148.072 138.657 148.2 138.797ZM29.5205 135.644C29.611 135.723 29.7019 135.801 29.793 135.88C29.7019 135.801 29.6109 135.723 29.5205 135.644ZM28.5479 134.772C28.6828 134.896 28.8177 135.02 28.9541 135.143C29.0068 135.19 29.0604 135.236 29.1133 135.283C28.9235 135.114 28.735 134.944 28.5479 134.772ZM27.6201 133.903C27.673 133.954 27.7262 134.004 27.7793 134.055C27.7262 134.004 27.673 133.954 27.6201 133.903ZM54.3115 65.1084C54.2797 65.161 54.2482 65.2137 54.2168 65.2666C54.2482 65.2138 54.2797 65.161 54.3115 65.1084ZM54.6348 64.5879C54.5904 64.6574 54.5476 64.7279 54.5039 64.7979C54.5765 64.6819 54.6492 64.566 54.7236 64.4512C54.6941 64.4968 54.664 64.5421 54.6348 64.5879ZM62.5166 56.7832C62.3727 56.8771 62.2302 56.9718 62.0889 57.0674L62.5176 56.7832C62.6615 56.6893 62.8066 56.5961 62.9531 56.5039L62.5166 56.7832ZM124.789 54.9248L124.75 54.8994C124.711 54.8744 124.67 54.851 124.631 54.8262C124.684 54.8593 124.737 54.8914 124.789 54.9248ZM124.253 54.5938C124.204 54.5642 124.154 54.5342 124.104 54.5049C124.154 54.5343 124.204 54.5641 124.253 54.5938ZM72.5 51.5508C71.6589 51.9366 70.8416 52.3316 70.0527 52.7236C70.75 52.3772 71.4694 52.0282 72.208 51.6855C72.305 51.6405 72.4024 51.5956 72.5 51.5508ZM73.458 51.1211C73.2972 51.1919 73.1368 51.2624 72.9775 51.334C73.1368 51.2624 73.2972 51.1918 73.458 51.1211ZM74.4297 50.7031C74.2556 50.7761 74.0826 50.8506 73.9102 50.9248C74.008 50.8827 74.1057 50.8396 74.2041 50.7979C74.2791 50.7661 74.3544 50.7347 74.4297 50.7031ZM75.3877 50.3125C75.2765 50.3566 75.1653 50.4006 75.0547 50.4453C75.1653 50.4005 75.2765 50.3567 75.3877 50.3125ZM28.1309 134.386C28.1897 134.441 28.2475 134.497 28.3066 134.552C28.3519 134.594 28.3979 134.635 28.4434 134.677C28.3386 134.58 28.2348 134.483 28.1309 134.386Z" fill="#EFE9E4"/>
</svg>
